<?xml version="1.0" encoding="UTF-8"?><svg xmlns="http://www.w3.org/2000/svg" viewBox="0 0 2551.36 2547.56"><g id="a"><rect x="28.76" y="46.14" width="2482.36" height="2482.36" rx="370.12" ry="370.12" style="stroke:#00ff04; stroke-miterlimit:10;"/></g><g id="b"><rect x="211.76" y="229.32" width="1029.21" height="1029.21" rx="319.77" ry="319.77" style="fill:#f60; stroke:#00ff04; stroke-miterlimit:10;"/></g><g id="c"><rect x="1299.91" y="203.71" width="1029.21" height="1029.21" rx="319.77" ry="319.77" style="fill:red; stroke:#00ff04; stroke-miterlimit:10;"/></g><g id="d"><rect x="1320.21" y="1326.32" width="1029.21" height="1029.21" rx="319.77" ry="319.77" style="fill:#0c0; stroke:#00ff04; stroke-miterlimit:10;"/></g><g id="e"><rect x="211.76" y="1326.32" width="1029.21" height="1029.21" rx="319.77" ry="319.77" style="fill:#30f; stroke:#00ff04; stroke-miterlimit:10;"/></g><g id="f"><rect x="255.13" y="271.01" width="2021.41" height="2021.41" rx="395.98" ry="395.98" transform="translate(1277.07 -519.67) rotate(45)" style="fill:#000adf; stroke:#00ff04; stroke-miterlimit:10;"/></g><g id="g"><g><path d="M1170.82,1464.03c0,56.17-14.44,106.64-43.31,151.41s-71.14,79.81-126.78,105.16c-55.64,25.33-121.61,38-197.91,38-91.47,0-166.92-17.3-226.36-51.91-42.19-24.92-76.45-58.19-102.81-99.8-26.38-41.59-39.55-82.05-39.55-121.34,0-22.8,7.91-42.33,23.72-58.59s35.97-24.41,60.44-24.41c19.81,0,36.58,6.34,50.3,19.02,13.72,12.69,25.42,31.48,35.12,56.41,11.81,29.59,24.56,54.31,38.28,74.17,13.7,19.86,33,36.23,57.89,49.12,24.88,12.89,57.56,19.33,98.06,19.33,55.67,0,100.91-12.98,135.7-38.98,34.8-25.98,52.2-58.42,52.2-97.3,0-30.84-9.39-55.88-28.16-75.11-18.78-19.22-43.03-33.91-72.77-44.05s-69.48-20.92-119.25-32.33c-66.66-15.61-122.44-33.86-167.36-54.75-44.92-20.88-80.56-49.36-106.92-85.45-26.38-36.08-39.55-80.92-39.55-134.52s13.91-96.41,41.73-136.08c27.83-39.66,68.09-70.16,120.8-91.47s114.69-31.97,185.94-31.97c56.91,0,106.14,7.06,147.67,21.19s75.98,32.89,103.39,56.28c27.41,23.41,47.42,47.95,60.08,73.67s18.98,50.81,18.98,75.25c0,22.34-7.91,42.48-23.69,60.39-15.8,17.92-35.48,26.88-59.05,26.88-21.48,0-37.8-5.34-48.95-16.06-11.16-10.7-23.27-28.23-36.31-52.59-16.88-35.2-37.12-62.67-60.75-82.41-23.62-19.72-61.58-29.59-113.88-29.59-48.52,0-87.64,10.67-117.38,32.02s-44.59,47.02-44.59,77.02c0,18.59,5.06,34.66,15.19,48.17,10.12,13.53,24.03,25.14,41.75,34.86s35.64,17.33,53.78,22.83c18.12,5.5,48.08,13.52,89.84,24.08,52.25,12.25,99.55,25.78,141.89,40.56,42.34,14.8,78.36,32.77,108.06,53.89s52.88,47.86,69.52,80.17c16.64,32.33,24.97,71.94,24.97,118.84Z" style="fill:#fff;"/><path d="M1446.45,814.59h245.09c63.75,0,118.42,5.92,164.02,17.75,45.59,11.84,86.98,34.03,124.14,66.58,96.36,82.73,144.55,208.52,144.55,377.33,0,55.72-4.84,106.58-14.52,152.58-9.69,46-24.62,87.47-44.83,124.41s-46.08,69.95-77.64,99.08c-24.91,22.31-52.14,40.19-81.69,53.66-29.56,13.47-61.33,22.95-95.3,28.42-33.98,5.47-72.3,8.2-114.94,8.2h-245.05c-34.2,0-59.95-5.16-77.27-15.5s-28.59-24.91-33.88-43.69-7.91-43.14-7.91-73.11V929.8c0-40.5,9.06-69.83,27.22-87.98s47.47-27.22,87.98-27.22Zm72.8,149v630h142.56c31.25,0,55.73-.84,73.48-2.53s36.12-5.91,55.12-12.66,35.48-16.25,49.42-28.5c62.94-53.19,94.41-144.78,94.41-274.8,0-91.59-13.84-160.17-41.5-205.77-27.67-45.59-61.78-74.61-102.33-87.06-40.56-12.45-89.55-18.69-146.98-18.69h-124.19Z" style="fill:#fff;"/></g></g></svg>